<mxfile host="65bd71144e">
    <diagram id="S22Hv3pzq5iM8Lb1_hDw" name="Page-1">
        <mxGraphModel dx="1956" dy="1624" grid="1" gridSize="10" guides="1" tooltips="1" connect="1" arrows="1" fold="1" page="1" pageScale="1" pageWidth="850" pageHeight="1100" background="#000000" math="0" shadow="0">
            <root>
                <mxCell id="0"/>
                <mxCell id="1" parent="0"/>
                <mxCell id="9" style="edgeStyle=none;html=1;exitX=1;exitY=0.5;exitDx=0;exitDy=0;fontSize=9;" parent="1" source="2" target="10" edge="1">
                    <mxGeometry relative="1" as="geometry">
                        <mxPoint x="140" y="-90" as="targetPoint"/>
                    </mxGeometry>
                </mxCell>
                <mxCell id="2" value="&lt;span style=&quot;font-size: 10px;&quot;&gt;Weather&lt;br&gt;&lt;br&gt;&amp;nbsp;Cloudy&lt;br&gt;Snowy&lt;br&gt;Rainy&lt;br&gt;Sunny&lt;br&gt;High UV Indec&lt;br&gt;High Fog&lt;br&gt;&lt;/span&gt;" style="whiteSpace=wrap;html=1;fillColor=#1ba1e2;fontColor=#ffffff;strokeColor=#006EAF;" parent="1" vertex="1">
                    <mxGeometry x="-710" y="-840" width="410" height="260" as="geometry"/>
                </mxCell>
                <mxCell id="8" value="&lt;br style=&quot;border-color: rgb(0, 0, 0); color: rgb(255, 255, 255); font-family: Helvetica; font-size: 12px; font-style: normal; font-variant-ligatures: normal; font-variant-caps: normal; font-weight: 400; letter-spacing: normal; orphans: 2; text-align: center; text-indent: 0px; text-transform: none; widows: 2; word-spacing: 0px; -webkit-text-stroke-width: 0px; background-color: rgb(42, 37, 47); text-decoration-thickness: initial; text-decoration-style: initial; text-decoration-color: initial;&quot;&gt;Tempeture and type of weather for user to know the conditions" style="whiteSpace=wrap;html=1;fillColor=#1ba1e2;fontColor=#ffffff;strokeColor=#006EAF;" parent="1" vertex="1">
                    <mxGeometry x="-130" y="-800" width="250" height="210" as="geometry"/>
                </mxCell>
                <mxCell id="11" style="edgeStyle=none;html=1;fontSize=9;" parent="1" source="10" target="12" edge="1">
                    <mxGeometry relative="1" as="geometry">
                        <mxPoint x="600" y="60" as="targetPoint"/>
                        <Array as="points">
                            <mxPoint x="550" y="-350"/>
                        </Array>
                    </mxGeometry>
                </mxCell>
                <mxCell id="10" value="Jokes Array" style="whiteSpace=wrap;html=1;fillColor=#1ba1e2;fontColor=#ffffff;strokeColor=#006EAF;fontSize=9;" parent="1" vertex="1">
                    <mxGeometry x="410" y="-786.75" width="280" height="153.5" as="geometry"/>
                </mxCell>
                <mxCell id="14" style="edgeStyle=none;html=1;" parent="1" source="12" edge="1">
                    <mxGeometry relative="1" as="geometry">
                        <mxPoint x="190" y="-279.9999999999998" as="targetPoint"/>
                    </mxGeometry>
                </mxCell>
                <mxCell id="12" value="Controller/Mapper&lt;br&gt;&lt;br&gt;WeatherRequest.java" style="whiteSpace=wrap;html=1;fillColor=#1ba1e2;fontColor=#ffffff;strokeColor=#006EAF;" parent="1" vertex="1">
                    <mxGeometry x="440" y="-350" width="200" height="140" as="geometry"/>
                </mxCell>
                <mxCell id="15" value="JavaScript:&lt;br&gt;1. Fetch The Api&lt;br&gt;2. Plot using a create template body and onclick function to fetch data based on each model&amp;nbsp;&amp;nbsp;" style="whiteSpace=wrap;html=1;fillColor=#1ba1e2;fontColor=#ffffff;strokeColor=#006EAF;" parent="1" vertex="1">
                    <mxGeometry x="-40" y="-350" width="190" height="140" as="geometry"/>
                </mxCell>
            </root>
        </mxGraphModel>
    </diagram>
</mxfile>